<?xml version="1.0" encoding="UTF-8"?>
<svg width="500px" height="500px" viewBox="0 0 500 500" version="1.1" xmlns="http://www.w3.org/2000/svg" xmlns:xlink="http://www.w3.org/1999/xlink">
    <!-- Generator: Sketch 49.3 (51167) - http://www.bohemiancoding.com/sketch -->
    <title>behance</title>
    <desc>Created with Sketch.</desc>
    <defs></defs>
    <g id="behance" stroke="none" stroke-width="1" fill="none" fill-rule="evenodd">
        <path d="M218,216.841099 C218,201 207.247808,201 207.247808,201 L201.551557,201 L163.016631,201 L163,201 L163,235 L204.503629,235 C211.680073,235 218,232.707209 218,216.841099 Z" id="Shape" fill="#C5C5C5" fill-rule="nonzero"></path>
        <path d="M320.782631,235 C297.282226,235 294,258 294,258 L344,258 C343.999799,258.016338 344.308028,235 320.782631,235 Z" id="Shape" fill="#C5C5C5" fill-rule="nonzero"></path>
        <path d="M207.769252,258.000034 L163,258 L163,297.985451 L202.65926,297.985451 C203.332735,297.985451 204.326111,298.018186 205.513111,297.985451 C211.885868,297.829962 224,296.062289 224,278.557416 C224,257.803626 207.769252,258.000034 207.769252,258.000034 Z" id="Shape" fill="#C5C5C5" fill-rule="nonzero"></path>
        <path d="M251,45 C137.412068,45 45,137.412068 45,251 C45,364.579634 137.412068,457 251,457 C364.579634,457 457,364.579634 457,251 C457,137.412068 364.59623,45 251,45 Z M287.452026,182.867155 L350.008781,182.867155 L350.008781,201.545396 L287.452026,201.545396 L287.452026,182.867155 Z M255.820994,280.813824 C255.820994,327.090389 207.644244,325.580198 207.644244,325.580198 L163.516797,325.580198 L162.222348,325.580198 L128.749215,325.580198 L128.749215,173.938774 L162.222348,173.938774 L163.516797,173.938774 L207.644244,173.938774 C231.633046,173.938774 250.560219,187.190284 250.560219,214.323935 C250.560219,241.449287 227.426086,243.17522 227.426086,243.17522 C257.920325,243.166922 255.820994,280.813824 255.820994,280.813824 Z M372.860791,278.324499 L294.272779,278.324499 C294.272779,306.503666 320.966648,304.727947 320.966648,304.727947 C346.158624,304.727947 345.279062,288.414565 345.279062,288.414565 L371.989527,288.414565 C371.989527,331.712237 320.095384,328.733344 320.095384,328.733344 C257.837348,328.733344 261.836865,270.773544 261.836865,270.773544 C261.836865,270.773544 261.77878,212.506727 320.095384,212.506727 C381.46556,212.506727 372.844196,278.324499 372.860791,278.324499 Z" id="Shape" fill="#C5C5C5" fill-rule="nonzero"></path>
    </g>
</svg>