<?xml version="1.0" encoding="UTF-8"?>
<svg width="500px" height="500px" viewBox="0 0 500 500" version="1.1" xmlns="http://www.w3.org/2000/svg" xmlns:xlink="http://www.w3.org/1999/xlink">
    <!-- Generator: Sketch 49.3 (51167) - http://www.bohemiancoding.com/sketch -->
    <title>github</title>
    <desc>Created with Sketch.</desc>
    <defs></defs>
    <g id="github" stroke="none" stroke-width="1" fill="none" fill-rule="evenodd">
        <path d="M250.5,42 C135.5331,42 42,135.825 42,251.1533 C42,348.4533 108.5115,435.7731 200.1542,458.7915 C202.2531,459.3058 204.4354,458.861 206.1312,457.5405 C207.8131,456.22 208.8,454.1906 208.8,452.05 L208.8,399.1327 C208.8,395.9218 206.5899,393.1279 203.4624,392.3773 C198.6113,391.2097 193.3988,390.6259 187.95,390.6259 C165.0428,390.6259 148.9883,369.5396 134.8242,350.9414 C132.5724,347.9807 130.3623,345.0895 128.1939,342.3373 C135.1439,346.3266 140.7039,351.3862 146.1805,356.3624 C155.7159,365.0499 165.571,374.0432 180.9027,374.0432 C182.39,374.071 197.4993,374.0154 206.7567,364.8275 C208.0633,363.5209 208.8,361.7417 208.8,359.893 L208.8,347.8278 C208.8,344.8393 206.8957,342.1983 204.0601,341.2392 C156.2719,325.2125 125.4,287.1265 125.4,244.1894 C125.4,221.2544 134.2543,199.3897 150.9899,181 C152.8108,178.9984 153.3112,176.1211 152.2687,173.6469 C145.9581,158.5376 147.9319,138.7718 156.3692,127.3043 C165.9185,130.8488 178.7482,138.6328 188.0612,148.5713 C190.035,150.6563 193.1069,151.3791 195.7618,150.2532 C230.4423,136.0891 270.5577,136.0891 305.2382,150.2532 C307.8931,151.3652 310.965,150.6702 312.9388,148.5713 C322.2518,138.6328 335.0815,130.8488 344.6308,127.3043 C353.0681,138.7718 355.0419,158.5376 348.7313,173.6469 C347.6888,176.1211 348.1892,178.9984 350.0101,181 C366.7457,199.3897 375.6,221.2544 375.6,244.1894 C375.6,288.0856 342.3234,327.6033 292.7977,342.518 C291.0046,343.0601 289.5034,344.2972 288.6416,345.9652 C287.7798,347.6193 287.613,349.5792 288.2107,351.3584 C290.8517,359.3648 292.2,367.4824 292.2,375.4888 L292.2,452.05 C292.2,454.1906 293.1869,456.22 294.8688,457.5405 C296.1059,458.4996 297.621,459 299.15,459 C299.7199,459 300.2898,458.9305 300.8458,458.7915 C392.4885,435.7731 459,348.4533 459,251.1533 C459,135.825 365.4669,42 250.5,42" id="Fill-141" fill="#C5C5C5"></path>
    </g>
</svg>