<?xml version="1.0" encoding="UTF-8"?>
<svg width="500px" height="500px" viewBox="0 0 500 500" version="1.1" xmlns="http://www.w3.org/2000/svg" xmlns:xlink="http://www.w3.org/1999/xlink">
    <!-- Generator: Sketch 49.3 (51167) - http://www.bohemiancoding.com/sketch -->
    <title>instagram</title>
    <desc>Created with Sketch.</desc>
    <defs></defs>
    <g id="instagram" stroke="none" stroke-width="1" fill="none" fill-rule="evenodd">
        <path d="M249.983111,292 C273.129583,292 292,273.16338 292,250 C292,240.856338 289.008452,232.414085 284.05634,225.51831 C276.425357,214.938028 264.019727,208 250.008463,208 C235.988749,208 223.59157,214.929577 215.943685,225.509859 C210.974673,232.405634 208.008476,240.847887 208.000026,249.991549 C207.974673,273.15493 226.828189,292 249.983111,292 Z" id="Shape" fill="#C5C5C5" fill-rule="nonzero"></path>
        <polygon id="Shape" fill="#C5C5C5" fill-rule="nonzero" points="342 198.866722 342 164.164515 342 159 336.794234 159.01666 302 159.124948 302.133695 199"></polygon>
        <path d="M250.5,40 C366.577701,40 461,134.430778 461,250.5 C461,366.560743 366.560743,461 250.5,461 C134.430778,461 40,366.560743 40,250.5 C40,134.430778 134.430778,40 250.5,40 Z M370.215198,225.936297 L370.215198,177.06326 C370.215198,151.541428 349.458572,130.793281 323.93674,130.793281 L177.054781,130.793281 C151.532949,130.793281 130.784802,151.541428 130.784802,177.06326 L130.784802,225.936297 L130.784802,323.953698 C130.784802,349.484009 151.532949,370.232156 177.054781,370.232156 L323.945219,370.232156 C349.458572,370.232156 370.215198,349.484009 370.215198,323.953698 L370.215198,225.936297 Z" id="Combined-Shape" fill="#C5C5C5"></path>
        <path d="M315.234396,250.574944 C315.234396,286.686624 285.980471,316.088334 250.012668,316.088334 C214.044865,316.088334 184.799384,286.686624 184.799384,250.574944 C184.799384,241.88846 186.52219,233.583707 189.596217,226 L154,226 L154,324.062255 C154,336.735698 164.243941,347 176.852518,347 L323.147482,347 C335.739169,347 346,336.735698 346,324.062255 L346,226 L310.386892,226 C313.486255,233.583707 315.234396,241.88846 315.234396,250.574944 Z" id="Shape" fill="#C5C5C5" fill-rule="nonzero"></path>
    </g>
</svg>