<?xml version="1.0" encoding="UTF-8"?>
<svg width="500px" height="500px" viewBox="0 0 500 500" version="1.1" xmlns="http://www.w3.org/2000/svg" xmlns:xlink="http://www.w3.org/1999/xlink">
    <!-- Generator: Sketch 49.3 (51167) - http://www.bohemiancoding.com/sketch -->
    <title>twitter</title>
    <desc>Created with Sketch.</desc>
    <defs></defs>
    <g id="twitter" stroke="none" stroke-width="1" fill="none" fill-rule="evenodd">
        <path d="M459,117.137775 C443.677936,124.115385 427.181018,128.834056 409.876387,130.942398 C427.54816,120.099494 441.107942,102.906464 447.496214,82.4254243 C430.950343,92.4651499 412.666667,99.7690502 393.134707,103.684543 C377.567882,86.6421091 355.31907,76 330.696073,76 C283.481599,76 245.17644,115.280426 245.17644,163.722102 C245.17644,170.599314 245.910724,177.275731 247.379292,183.701156 C176.276105,180.036656 113.250044,145.14861 71.0287022,92.0133622 C63.661384,105.014807 59.4514879,120.099494 59.4514879,136.163055 C59.4514879,166.583424 74.5532664,193.439689 97.5118859,209.176959 C83.5115337,208.750271 70.294418,204.75948 58.7416799,198.233658 L58.7416799,199.312929 C58.7416799,241.831166 88.2354288,277.296497 127.397253,285.328277 C120.225744,287.386421 112.662617,288.415493 104.854728,288.415493 C99.3475964,288.415493 93.9628456,287.888407 88.7494277,286.859336 C99.6413101,321.697183 131.215531,347.072589 168.664025,347.750271 C139.390562,371.293427 102.480542,385.323944 62.4131009,385.323944 C55.5108294,385.323944 48.6819863,384.922355 42,384.119177 C79.8645888,408.967497 124.851734,423.5 173.143159,423.5 C330.52474,423.5 416.558373,289.846154 416.558373,173.912423 C416.558373,170.097328 416.484945,166.282232 416.338088,162.542434 C433.055291,150.168472 447.569643,134.732394 459,117.137775" id="Twitter" fill="#C5C5C5"></path>
    </g>
</svg>